<mxfile host="app.diagrams.net" modified="2022-05-15T05:43:16.916Z" agent="5.0 (Macintosh; Intel Mac OS X 10_15_7) AppleWebKit/537.36 (KHTML, like Gecko) Chrome/101.0.4951.64 Safari/537.36" etag="q3Bgo_MA2cKyHXj87IM5" version="18.0.1" type="github">
  <diagram id="KwG3KzkdkKJEUnAlNp7N" name="第 1 页">
    <mxGraphModel dx="1226" dy="1129" grid="1" gridSize="10" guides="1" tooltips="1" connect="1" arrows="1" fold="1" page="1" pageScale="1" pageWidth="827" pageHeight="1169" math="0" shadow="0">
      <root>
        <mxCell id="0" />
        <mxCell id="1" parent="0" />
        <mxCell id="YPs2PWeKYUDRz_fuo6rX-30" value="" style="rounded=1;whiteSpace=wrap;html=1;shadow=0;sketch=1;fontFamily=Comic Sans MS;fontSize=18;fontColor=#FF0000;strokeWidth=2;strokeColor=#EA6B66;" vertex="1" parent="1">
          <mxGeometry x="438" y="1210" width="87" height="36" as="geometry" />
        </mxCell>
        <mxCell id="YPs2PWeKYUDRz_fuo6rX-27" value="" style="rounded=1;whiteSpace=wrap;html=1;fontFamily=Comic Sans MS;fontSize=18;fontColor=#FF0000;strokeWidth=2;shadow=0;sketch=1;strokeColor=#EA6B66;" vertex="1" parent="1">
          <mxGeometry x="266" y="1210" width="144" height="36" as="geometry" />
        </mxCell>
        <mxCell id="YPs2PWeKYUDRz_fuo6rX-23" value="" style="group;sketch=1;" vertex="1" connectable="0" parent="1">
          <mxGeometry x="160" y="70" width="470" height="280" as="geometry" />
        </mxCell>
        <mxCell id="YPs2PWeKYUDRz_fuo6rX-3" value="&lt;b&gt;&lt;font face=&quot;Comic Sans MS&quot; style=&quot;font-size: 28px;&quot;&gt;5 * 4 / 2 + 3 * 6&lt;/font&gt;&lt;/b&gt;" style="text;html=1;align=center;verticalAlign=middle;resizable=0;points=[];autosize=1;strokeColor=none;fillColor=none;fontColor=#A680B8;sketch=1;" vertex="1" parent="YPs2PWeKYUDRz_fuo6rX-23">
          <mxGeometry x="130" width="260" height="30" as="geometry" />
        </mxCell>
        <mxCell id="YPs2PWeKYUDRz_fuo6rX-6" value="6" style="ellipse;whiteSpace=wrap;html=1;aspect=fixed;strokeWidth=2;fontSize=18;fontStyle=1;sketch=1;" vertex="1" parent="YPs2PWeKYUDRz_fuo6rX-23">
          <mxGeometry x="420" y="170" width="50" height="50" as="geometry" />
        </mxCell>
        <mxCell id="YPs2PWeKYUDRz_fuo6rX-7" value="3" style="ellipse;whiteSpace=wrap;html=1;aspect=fixed;strokeWidth=2;fontSize=18;fontStyle=1;sketch=1;" vertex="1" parent="YPs2PWeKYUDRz_fuo6rX-23">
          <mxGeometry x="310" y="170" width="50" height="50" as="geometry" />
        </mxCell>
        <mxCell id="YPs2PWeKYUDRz_fuo6rX-8" value="2" style="ellipse;whiteSpace=wrap;html=1;aspect=fixed;strokeWidth=2;fontSize=18;fontStyle=1;sketch=1;" vertex="1" parent="YPs2PWeKYUDRz_fuo6rX-23">
          <mxGeometry x="190" y="170" width="50" height="50" as="geometry" />
        </mxCell>
        <mxCell id="YPs2PWeKYUDRz_fuo6rX-9" value="4" style="ellipse;whiteSpace=wrap;html=1;aspect=fixed;strokeWidth=2;fontSize=18;fontStyle=1;sketch=1;" vertex="1" parent="YPs2PWeKYUDRz_fuo6rX-23">
          <mxGeometry x="90" y="230" width="50" height="50" as="geometry" />
        </mxCell>
        <mxCell id="YPs2PWeKYUDRz_fuo6rX-10" value="5" style="ellipse;whiteSpace=wrap;html=1;aspect=fixed;strokeWidth=2;fontSize=18;fontStyle=1;sketch=1;" vertex="1" parent="YPs2PWeKYUDRz_fuo6rX-23">
          <mxGeometry y="230" width="50" height="50" as="geometry" />
        </mxCell>
        <mxCell id="YPs2PWeKYUDRz_fuo6rX-11" value="*" style="rhombus;whiteSpace=wrap;html=1;fontFamily=Comic Sans MS;fontSize=28;fontColor=#FF0000;strokeWidth=2;sketch=1;" vertex="1" parent="YPs2PWeKYUDRz_fuo6rX-23">
          <mxGeometry x="30" y="170" width="80" height="50" as="geometry" />
        </mxCell>
        <mxCell id="YPs2PWeKYUDRz_fuo6rX-13" style="edgeStyle=none;curved=1;orthogonalLoop=1;jettySize=auto;html=1;exitX=0.5;exitY=0;exitDx=0;exitDy=0;fontFamily=Comic Sans MS;fontSize=28;fontColor=#A680B8;endArrow=none;endFill=0;strokeWidth=3;sketch=1;" edge="1" parent="YPs2PWeKYUDRz_fuo6rX-23" source="YPs2PWeKYUDRz_fuo6rX-9" target="YPs2PWeKYUDRz_fuo6rX-11">
          <mxGeometry relative="1" as="geometry" />
        </mxCell>
        <mxCell id="YPs2PWeKYUDRz_fuo6rX-12" style="orthogonalLoop=1;jettySize=auto;html=1;exitX=0.5;exitY=0;exitDx=0;exitDy=0;entryX=0;entryY=1;entryDx=0;entryDy=0;fontFamily=Comic Sans MS;fontSize=28;fontColor=#A680B8;endArrow=none;endFill=0;curved=1;strokeWidth=3;sketch=1;" edge="1" parent="YPs2PWeKYUDRz_fuo6rX-23" source="YPs2PWeKYUDRz_fuo6rX-10" target="YPs2PWeKYUDRz_fuo6rX-11">
          <mxGeometry relative="1" as="geometry" />
        </mxCell>
        <mxCell id="YPs2PWeKYUDRz_fuo6rX-14" value="/" style="rhombus;whiteSpace=wrap;html=1;fontFamily=Comic Sans MS;fontSize=28;fontColor=#FF0000;strokeWidth=2;sketch=1;" vertex="1" parent="YPs2PWeKYUDRz_fuo6rX-23">
          <mxGeometry x="100" y="110" width="80" height="50" as="geometry" />
        </mxCell>
        <mxCell id="YPs2PWeKYUDRz_fuo6rX-16" style="edgeStyle=none;curved=1;orthogonalLoop=1;jettySize=auto;html=1;exitX=0;exitY=0;exitDx=0;exitDy=0;fontFamily=Comic Sans MS;fontSize=28;fontColor=#A680B8;endArrow=none;endFill=0;strokeWidth=3;sketch=1;" edge="1" parent="YPs2PWeKYUDRz_fuo6rX-23" source="YPs2PWeKYUDRz_fuo6rX-8" target="YPs2PWeKYUDRz_fuo6rX-14">
          <mxGeometry relative="1" as="geometry" />
        </mxCell>
        <mxCell id="YPs2PWeKYUDRz_fuo6rX-15" style="edgeStyle=none;curved=1;orthogonalLoop=1;jettySize=auto;html=1;exitX=1;exitY=0;exitDx=0;exitDy=0;entryX=0;entryY=1;entryDx=0;entryDy=0;fontFamily=Comic Sans MS;fontSize=28;fontColor=#A680B8;endArrow=none;endFill=0;strokeWidth=3;sketch=1;" edge="1" parent="YPs2PWeKYUDRz_fuo6rX-23" source="YPs2PWeKYUDRz_fuo6rX-11" target="YPs2PWeKYUDRz_fuo6rX-14">
          <mxGeometry relative="1" as="geometry" />
        </mxCell>
        <mxCell id="YPs2PWeKYUDRz_fuo6rX-17" value="*" style="rhombus;whiteSpace=wrap;html=1;fontFamily=Comic Sans MS;fontSize=28;fontColor=#FF0000;strokeWidth=2;sketch=1;" vertex="1" parent="YPs2PWeKYUDRz_fuo6rX-23">
          <mxGeometry x="340" y="110" width="80" height="50" as="geometry" />
        </mxCell>
        <mxCell id="YPs2PWeKYUDRz_fuo6rX-19" style="edgeStyle=none;curved=1;orthogonalLoop=1;jettySize=auto;html=1;exitX=0;exitY=0;exitDx=0;exitDy=0;entryX=1;entryY=1;entryDx=0;entryDy=0;fontFamily=Comic Sans MS;fontSize=28;fontColor=#A680B8;endArrow=none;endFill=0;strokeWidth=3;sketch=1;" edge="1" parent="YPs2PWeKYUDRz_fuo6rX-23" source="YPs2PWeKYUDRz_fuo6rX-6" target="YPs2PWeKYUDRz_fuo6rX-17">
          <mxGeometry relative="1" as="geometry" />
        </mxCell>
        <mxCell id="YPs2PWeKYUDRz_fuo6rX-18" style="edgeStyle=none;curved=1;orthogonalLoop=1;jettySize=auto;html=1;exitX=0.5;exitY=0;exitDx=0;exitDy=0;fontFamily=Comic Sans MS;fontSize=28;fontColor=#A680B8;endArrow=none;endFill=0;strokeWidth=3;sketch=1;" edge="1" parent="YPs2PWeKYUDRz_fuo6rX-23" source="YPs2PWeKYUDRz_fuo6rX-7" target="YPs2PWeKYUDRz_fuo6rX-17">
          <mxGeometry relative="1" as="geometry" />
        </mxCell>
        <mxCell id="YPs2PWeKYUDRz_fuo6rX-20" value="+" style="rhombus;whiteSpace=wrap;html=1;fontFamily=Comic Sans MS;fontSize=28;fontColor=#FF0000;strokeWidth=2;sketch=1;" vertex="1" parent="YPs2PWeKYUDRz_fuo6rX-23">
          <mxGeometry x="220" y="50" width="80" height="50" as="geometry" />
        </mxCell>
        <mxCell id="YPs2PWeKYUDRz_fuo6rX-21" style="edgeStyle=none;curved=1;orthogonalLoop=1;jettySize=auto;html=1;exitX=1;exitY=0;exitDx=0;exitDy=0;entryX=0;entryY=1;entryDx=0;entryDy=0;fontFamily=Comic Sans MS;fontSize=28;fontColor=#A680B8;endArrow=none;endFill=0;strokeWidth=3;sketch=1;" edge="1" parent="YPs2PWeKYUDRz_fuo6rX-23" source="YPs2PWeKYUDRz_fuo6rX-14" target="YPs2PWeKYUDRz_fuo6rX-20">
          <mxGeometry relative="1" as="geometry" />
        </mxCell>
        <mxCell id="YPs2PWeKYUDRz_fuo6rX-22" style="edgeStyle=none;curved=1;orthogonalLoop=1;jettySize=auto;html=1;exitX=0;exitY=0;exitDx=0;exitDy=0;entryX=1;entryY=1;entryDx=0;entryDy=0;fontFamily=Comic Sans MS;fontSize=28;fontColor=#A680B8;endArrow=none;endFill=0;strokeWidth=3;sketch=1;" edge="1" parent="YPs2PWeKYUDRz_fuo6rX-23" source="YPs2PWeKYUDRz_fuo6rX-17" target="YPs2PWeKYUDRz_fuo6rX-20">
          <mxGeometry relative="1" as="geometry" />
        </mxCell>
        <mxCell id="YPs2PWeKYUDRz_fuo6rX-24" value="算数表达式：" style="text;html=1;align=center;verticalAlign=middle;resizable=0;points=[];autosize=1;strokeColor=none;fillColor=none;fontSize=18;fontFamily=Comic Sans MS;fontColor=#FF0000;sketch=1;" vertex="1" parent="1">
          <mxGeometry x="50" y="30" width="120" height="30" as="geometry" />
        </mxCell>
        <mxCell id="YPs2PWeKYUDRz_fuo6rX-29" value="&lt;b style=&quot;color: rgb(166, 128, 184); font-family: Helvetica; font-size: 12px;&quot;&gt;&lt;font style=&quot;font-size: 28px;&quot; face=&quot;Comic Sans MS&quot;&gt;5 * 4 / 2 + 3 * 6&lt;/font&gt;&lt;/b&gt;" style="text;html=1;align=center;verticalAlign=middle;resizable=0;points=[];autosize=1;strokeColor=none;fillColor=none;fontSize=18;fontFamily=Comic Sans MS;fontColor=#FF0000;" vertex="1" parent="1">
          <mxGeometry x="269" y="1210" width="254" height="33" as="geometry" />
        </mxCell>
        <mxCell id="YPs2PWeKYUDRz_fuo6rX-58" value="" style="group" vertex="1" connectable="0" parent="1">
          <mxGeometry x="246" y="1258" width="336" height="544" as="geometry" />
        </mxCell>
        <mxCell id="YPs2PWeKYUDRz_fuo6rX-31" value="BinaryExpression" style="text;html=1;align=center;verticalAlign=middle;resizable=0;points=[];autosize=1;strokeColor=none;fillColor=none;fontSize=18;fontFamily=Comic Sans MS;fontColor=#FF0000;" vertex="1" parent="YPs2PWeKYUDRz_fuo6rX-58">
          <mxGeometry width="155" height="26" as="geometry" />
        </mxCell>
        <mxCell id="YPs2PWeKYUDRz_fuo6rX-32" value="tyep: &lt;font color=&quot;#67ab9f&quot;&gt;BinaryExpression&lt;/font&gt;" style="text;html=1;align=center;verticalAlign=middle;resizable=0;points=[];autosize=1;strokeColor=none;fillColor=none;fontSize=18;fontFamily=Comic Sans MS;fontColor=#FF0000;" vertex="1" parent="YPs2PWeKYUDRz_fuo6rX-58">
          <mxGeometry x="48.5" y="30" width="203" height="26" as="geometry" />
        </mxCell>
        <mxCell id="YPs2PWeKYUDRz_fuo6rX-33" value="left: &lt;font color=&quot;#67ab9f&quot;&gt;BinaryExpression&lt;/font&gt;" style="text;html=1;align=center;verticalAlign=middle;resizable=0;points=[];autosize=1;strokeColor=none;fillColor=none;fontSize=18;fontFamily=Comic Sans MS;fontColor=#FF0000;" vertex="1" parent="YPs2PWeKYUDRz_fuo6rX-58">
          <mxGeometry x="51" y="62" width="198" height="26" as="geometry" />
        </mxCell>
        <mxCell id="YPs2PWeKYUDRz_fuo6rX-36" value="tyep:&amp;nbsp;&lt;span style=&quot;color: rgb(103, 171, 159);&quot;&gt;BinaryExpression&lt;/span&gt;" style="text;html=1;align=center;verticalAlign=middle;resizable=0;points=[];autosize=1;strokeColor=none;fillColor=none;fontSize=18;fontFamily=Comic Sans MS;fontColor=#FF0000;" vertex="1" parent="YPs2PWeKYUDRz_fuo6rX-58">
          <mxGeometry x="96.5" y="95" width="203" height="26" as="geometry" />
        </mxCell>
        <mxCell id="YPs2PWeKYUDRz_fuo6rX-57" value="" style="group" vertex="1" connectable="0" parent="YPs2PWeKYUDRz_fuo6rX-58">
          <mxGeometry x="96.5" y="127" width="239.5" height="417" as="geometry" />
        </mxCell>
        <mxCell id="YPs2PWeKYUDRz_fuo6rX-37" value="left:&amp;nbsp;&lt;span style=&quot;color: rgb(103, 171, 159);&quot;&gt;BinaryExpression&lt;/span&gt;" style="text;html=1;align=center;verticalAlign=middle;resizable=0;points=[];autosize=1;strokeColor=none;fillColor=none;fontSize=18;fontFamily=Comic Sans MS;fontColor=#FF0000;" vertex="1" parent="YPs2PWeKYUDRz_fuo6rX-57">
          <mxGeometry width="198" height="26" as="geometry" />
        </mxCell>
        <mxCell id="YPs2PWeKYUDRz_fuo6rX-43" value="type: BinaryExpression" style="text;html=1;align=center;verticalAlign=middle;resizable=0;points=[];autosize=1;strokeColor=none;fillColor=none;fontSize=18;fontFamily=Comic Sans MS;fontColor=#FF0000;" vertex="1" parent="YPs2PWeKYUDRz_fuo6rX-57">
          <mxGeometry x="36.5" y="32" width="203" height="26" as="geometry" />
        </mxCell>
        <mxCell id="YPs2PWeKYUDRz_fuo6rX-44" value="" style="group" vertex="1" connectable="0" parent="YPs2PWeKYUDRz_fuo6rX-57">
          <mxGeometry y="298" width="188" height="119" as="geometry" />
        </mxCell>
        <mxCell id="YPs2PWeKYUDRz_fuo6rX-41" value="" style="group" vertex="1" connectable="0" parent="YPs2PWeKYUDRz_fuo6rX-44">
          <mxGeometry x="0.5" y="30" width="187.5" height="89" as="geometry" />
        </mxCell>
        <mxCell id="YPs2PWeKYUDRz_fuo6rX-38" value="right: &lt;font color=&quot;#67ab9f&quot;&gt;Identifier&lt;/font&gt;" style="text;html=1;align=center;verticalAlign=middle;resizable=0;points=[];autosize=1;strokeColor=none;fillColor=none;fontSize=18;fontFamily=Comic Sans MS;fontColor=#FF0000;" vertex="1" parent="YPs2PWeKYUDRz_fuo6rX-41">
          <mxGeometry width="149" height="26" as="geometry" />
        </mxCell>
        <mxCell id="YPs2PWeKYUDRz_fuo6rX-39" value="&lt;font color=&quot;#ff0000&quot;&gt;type:&amp;nbsp;&lt;/font&gt;Identifier" style="text;html=1;align=center;verticalAlign=middle;resizable=0;points=[];autosize=1;strokeColor=none;fillColor=none;fontSize=18;fontFamily=Comic Sans MS;fontColor=#67AB9F;" vertex="1" parent="YPs2PWeKYUDRz_fuo6rX-41">
          <mxGeometry x="43.5" y="31" width="144" height="26" as="geometry" />
        </mxCell>
        <mxCell id="YPs2PWeKYUDRz_fuo6rX-40" value="&lt;font color=&quot;#ff0000&quot;&gt;value: &lt;/font&gt;2" style="text;html=1;align=center;verticalAlign=middle;resizable=0;points=[];autosize=1;strokeColor=none;fillColor=none;fontSize=18;fontFamily=Comic Sans MS;fontColor=#67AB9F;" vertex="1" parent="YPs2PWeKYUDRz_fuo6rX-41">
          <mxGeometry x="47.5" y="63" width="74" height="26" as="geometry" />
        </mxCell>
        <mxCell id="YPs2PWeKYUDRz_fuo6rX-42" value="&lt;font color=&quot;#ff0000&quot;&gt;operator: &lt;/font&gt;/" style="text;html=1;align=center;verticalAlign=middle;resizable=0;points=[];autosize=1;strokeColor=none;fillColor=none;fontSize=18;fontFamily=Comic Sans MS;fontColor=#67AB9F;" vertex="1" parent="YPs2PWeKYUDRz_fuo6rX-44">
          <mxGeometry width="103" height="26" as="geometry" />
        </mxCell>
        <mxCell id="YPs2PWeKYUDRz_fuo6rX-56" value="" style="group" vertex="1" connectable="0" parent="YPs2PWeKYUDRz_fuo6rX-57">
          <mxGeometry x="39.5" y="69" width="191" height="229" as="geometry" />
        </mxCell>
        <mxCell id="YPs2PWeKYUDRz_fuo6rX-54" value="" style="group" vertex="1" connectable="0" parent="YPs2PWeKYUDRz_fuo6rX-56">
          <mxGeometry width="186" height="95" as="geometry" />
        </mxCell>
        <mxCell id="YPs2PWeKYUDRz_fuo6rX-45" value="left：Identirfier" style="text;html=1;align=center;verticalAlign=middle;resizable=0;points=[];autosize=1;strokeColor=none;fillColor=none;fontSize=18;fontFamily=Comic Sans MS;fontColor=#FF0000;" vertex="1" parent="YPs2PWeKYUDRz_fuo6rX-54">
          <mxGeometry width="155" height="26" as="geometry" />
        </mxCell>
        <mxCell id="YPs2PWeKYUDRz_fuo6rX-47" value="&lt;font color=&quot;#ff0000&quot;&gt;type:&amp;nbsp;&lt;/font&gt;&lt;span style=&quot;color: rgb(103, 171, 159);&quot;&gt;Identifier&lt;/span&gt;" style="text;html=1;align=center;verticalAlign=middle;resizable=0;points=[];autosize=1;strokeColor=none;fillColor=none;fontSize=18;fontFamily=Comic Sans MS;fontColor=#FF0000;" vertex="1" parent="YPs2PWeKYUDRz_fuo6rX-54">
          <mxGeometry x="42" y="34" width="144" height="26" as="geometry" />
        </mxCell>
        <mxCell id="YPs2PWeKYUDRz_fuo6rX-48" value="&lt;font color=&quot;#ff0000&quot;&gt;value: &lt;/font&gt;&lt;font color=&quot;#67ab9f&quot;&gt;5&lt;/font&gt;" style="text;html=1;align=center;verticalAlign=middle;resizable=0;points=[];autosize=1;strokeColor=none;fillColor=none;fontSize=18;fontFamily=Comic Sans MS;fontColor=#FF0000;" vertex="1" parent="YPs2PWeKYUDRz_fuo6rX-54">
          <mxGeometry x="42" y="69" width="74" height="26" as="geometry" />
        </mxCell>
        <mxCell id="YPs2PWeKYUDRz_fuo6rX-55" value="" style="group" vertex="1" connectable="0" parent="YPs2PWeKYUDRz_fuo6rX-56">
          <mxGeometry y="104" width="191" height="125" as="geometry" />
        </mxCell>
        <mxCell id="YPs2PWeKYUDRz_fuo6rX-52" value="operator: &lt;font color=&quot;#67ab9f&quot;&gt;*&lt;/font&gt;" style="text;html=1;align=center;verticalAlign=middle;resizable=0;points=[];autosize=1;strokeColor=none;fillColor=none;fontSize=18;fontFamily=Comic Sans MS;fontColor=#FF0000;" vertex="1" parent="YPs2PWeKYUDRz_fuo6rX-55">
          <mxGeometry width="104" height="26" as="geometry" />
        </mxCell>
        <mxCell id="YPs2PWeKYUDRz_fuo6rX-53" value="" style="group" vertex="1" connectable="0" parent="YPs2PWeKYUDRz_fuo6rX-55">
          <mxGeometry y="30" width="191" height="95" as="geometry" />
        </mxCell>
        <mxCell id="YPs2PWeKYUDRz_fuo6rX-49" value="right：Identirfier" style="text;html=1;align=center;verticalAlign=middle;resizable=0;points=[];autosize=1;strokeColor=none;fillColor=none;fontSize=18;fontFamily=Comic Sans MS;fontColor=#FF0000;" vertex="1" parent="YPs2PWeKYUDRz_fuo6rX-53">
          <mxGeometry width="165" height="26" as="geometry" />
        </mxCell>
        <mxCell id="YPs2PWeKYUDRz_fuo6rX-50" value="&lt;font color=&quot;#ff0000&quot;&gt;type:&amp;nbsp;&lt;/font&gt;&lt;span style=&quot;color: rgb(103, 171, 159);&quot;&gt;Identifier&lt;/span&gt;" style="text;html=1;align=center;verticalAlign=middle;resizable=0;points=[];autosize=1;strokeColor=none;fillColor=none;fontSize=18;fontFamily=Comic Sans MS;fontColor=#FF0000;" vertex="1" parent="YPs2PWeKYUDRz_fuo6rX-53">
          <mxGeometry x="47" y="34" width="144" height="26" as="geometry" />
        </mxCell>
        <mxCell id="YPs2PWeKYUDRz_fuo6rX-51" value="&lt;font color=&quot;#ff0000&quot;&gt;value: &lt;/font&gt;&lt;font color=&quot;#67ab9f&quot;&gt;4&lt;/font&gt;" style="text;html=1;align=center;verticalAlign=middle;resizable=0;points=[];autosize=1;strokeColor=none;fillColor=none;fontSize=18;fontFamily=Comic Sans MS;fontColor=#FF0000;" vertex="1" parent="YPs2PWeKYUDRz_fuo6rX-53">
          <mxGeometry x="47" y="69" width="74" height="26" as="geometry" />
        </mxCell>
        <mxCell id="YPs2PWeKYUDRz_fuo6rX-67" value="" style="group" vertex="1" connectable="0" parent="1">
          <mxGeometry x="298" y="1834" width="254.5" height="290" as="geometry" />
        </mxCell>
        <mxCell id="YPs2PWeKYUDRz_fuo6rX-34" value="right: &lt;font color=&quot;#67ab9f&quot;&gt;BinaryExpression&lt;/font&gt;" style="text;html=1;align=center;verticalAlign=middle;resizable=0;points=[];autosize=1;strokeColor=none;fillColor=none;fontSize=18;fontFamily=Comic Sans MS;fontColor=#FF0000;" vertex="1" parent="YPs2PWeKYUDRz_fuo6rX-67">
          <mxGeometry width="210" height="30" as="geometry" />
        </mxCell>
        <mxCell id="YPs2PWeKYUDRz_fuo6rX-59" value="&lt;span style=&quot;color: rgb(255, 0, 0);&quot;&gt;tyep:&amp;nbsp;&lt;/span&gt;BinaryExpression" style="text;html=1;align=center;verticalAlign=middle;resizable=0;points=[];autosize=1;strokeColor=none;fillColor=none;fontSize=18;fontFamily=Comic Sans MS;fontColor=#67AB9F;" vertex="1" parent="YPs2PWeKYUDRz_fuo6rX-67">
          <mxGeometry x="44.5" y="30" width="210" height="30" as="geometry" />
        </mxCell>
        <mxCell id="YPs2PWeKYUDRz_fuo6rX-60" value="&lt;span style=&quot;color: rgb(255, 0, 0);&quot;&gt;left：&lt;/span&gt;Identirfier" style="text;html=1;align=center;verticalAlign=middle;resizable=0;points=[];autosize=1;strokeColor=none;fillColor=none;fontSize=18;fontFamily=Comic Sans MS;fontColor=#67AB9F;" vertex="1" parent="YPs2PWeKYUDRz_fuo6rX-67">
          <mxGeometry x="9.5" y="65" width="160" height="30" as="geometry" />
        </mxCell>
        <mxCell id="YPs2PWeKYUDRz_fuo6rX-61" value="&lt;font style=&quot;color: rgb(255, 0, 0);&quot; color=&quot;#ff0000&quot;&gt;type:&amp;nbsp;&lt;/font&gt;Identifier" style="text;html=1;align=center;verticalAlign=middle;resizable=0;points=[];autosize=1;strokeColor=none;fillColor=none;fontSize=18;fontFamily=Comic Sans MS;fontColor=#67AB9F;" vertex="1" parent="YPs2PWeKYUDRz_fuo6rX-67">
          <mxGeometry x="48.5" y="99" width="150" height="30" as="geometry" />
        </mxCell>
        <mxCell id="YPs2PWeKYUDRz_fuo6rX-62" value="&lt;font style=&quot;color: rgb(255, 0, 0);&quot; color=&quot;#ff0000&quot;&gt;value: &lt;/font&gt;&lt;font style=&quot;&quot;&gt;3&lt;/font&gt;" style="text;html=1;align=center;verticalAlign=middle;resizable=0;points=[];autosize=1;strokeColor=none;fillColor=none;fontSize=18;fontFamily=Comic Sans MS;fontColor=#67AB9F;" vertex="1" parent="YPs2PWeKYUDRz_fuo6rX-67">
          <mxGeometry x="49.5" y="129" width="80" height="30" as="geometry" />
        </mxCell>
        <mxCell id="YPs2PWeKYUDRz_fuo6rX-63" value="&lt;span style=&quot;color: rgb(255, 0, 0);&quot;&gt;operator:&amp;nbsp;&lt;/span&gt;&lt;font color=&quot;#67ab9f&quot;&gt;*&lt;/font&gt;" style="text;html=1;align=center;verticalAlign=middle;resizable=0;points=[];autosize=1;strokeColor=none;fillColor=none;fontSize=18;fontFamily=Comic Sans MS;fontColor=#67AB9F;" vertex="1" parent="YPs2PWeKYUDRz_fuo6rX-67">
          <mxGeometry x="9.5" y="159" width="110" height="30" as="geometry" />
        </mxCell>
        <mxCell id="YPs2PWeKYUDRz_fuo6rX-64" value="&lt;span style=&quot;color: rgb(255, 0, 0);&quot;&gt;right:&amp;nbsp;&lt;/span&gt;&lt;font color=&quot;#67ab9f&quot;&gt;Identifier&lt;/font&gt;" style="text;html=1;align=center;verticalAlign=middle;resizable=0;points=[];autosize=1;strokeColor=none;fillColor=none;fontSize=18;fontFamily=Comic Sans MS;fontColor=#67AB9F;" vertex="1" parent="YPs2PWeKYUDRz_fuo6rX-67">
          <mxGeometry x="14.5" y="189" width="150" height="30" as="geometry" />
        </mxCell>
        <mxCell id="YPs2PWeKYUDRz_fuo6rX-65" value="&lt;font color=&quot;#ff0000&quot;&gt;type:&amp;nbsp;&lt;/font&gt;Identifier" style="text;html=1;align=center;verticalAlign=middle;resizable=0;points=[];autosize=1;strokeColor=none;fillColor=none;fontSize=18;fontFamily=Comic Sans MS;fontColor=#67AB9F;" vertex="1" parent="YPs2PWeKYUDRz_fuo6rX-67">
          <mxGeometry x="49.5" y="219" width="150" height="30" as="geometry" />
        </mxCell>
        <mxCell id="YPs2PWeKYUDRz_fuo6rX-66" value="&lt;font color=&quot;#ff0000&quot;&gt;value: &lt;/font&gt;6" style="text;html=1;align=center;verticalAlign=middle;resizable=0;points=[];autosize=1;strokeColor=none;fillColor=none;fontSize=18;fontFamily=Comic Sans MS;fontColor=#67AB9F;" vertex="1" parent="YPs2PWeKYUDRz_fuo6rX-67">
          <mxGeometry x="55.5" y="260" width="80" height="30" as="geometry" />
        </mxCell>
        <mxCell id="YPs2PWeKYUDRz_fuo6rX-68" value="&lt;font color=&quot;#ff0000&quot;&gt;operator: &lt;/font&gt;+" style="text;html=1;align=center;verticalAlign=middle;resizable=0;points=[];autosize=1;strokeColor=none;fillColor=none;fontSize=18;fontFamily=Comic Sans MS;fontColor=#67AB9F;" vertex="1" parent="1">
          <mxGeometry x="295" y="1802" width="110" height="30" as="geometry" />
        </mxCell>
        <mxCell id="YPs2PWeKYUDRz_fuo6rX-73" style="edgeStyle=none;curved=1;sketch=1;orthogonalLoop=1;jettySize=auto;html=1;exitX=1;exitY=0.5;exitDx=0;exitDy=0;entryX=0;entryY=0.5;entryDx=0;entryDy=0;fontFamily=Comic Sans MS;fontSize=18;fontColor=#67AB9F;endArrow=classic;endFill=1;strokeWidth=3;fillColor=#bac8d3;strokeColor=#23445d;" edge="1" parent="1" source="YPs2PWeKYUDRz_fuo6rX-70" target="YPs2PWeKYUDRz_fuo6rX-71">
          <mxGeometry relative="1" as="geometry" />
        </mxCell>
        <mxCell id="YPs2PWeKYUDRz_fuo6rX-76" value="toeken" style="edgeLabel;html=1;align=center;verticalAlign=middle;resizable=0;points=[];fontSize=18;fontFamily=Comic Sans MS;fontColor=#67AB9F;" vertex="1" connectable="0" parent="YPs2PWeKYUDRz_fuo6rX-73">
          <mxGeometry x="-0.3333" y="-3" relative="1" as="geometry">
            <mxPoint x="10" y="-23" as="offset" />
          </mxGeometry>
        </mxCell>
        <mxCell id="YPs2PWeKYUDRz_fuo6rX-70" value="Lexer&lt;br&gt;词法解析器" style="rounded=1;whiteSpace=wrap;html=1;shadow=0;sketch=1;fontFamily=Comic Sans MS;fontSize=18;strokeColor=#23445d;strokeWidth=2;fillColor=#bac8d3;" vertex="1" parent="1">
          <mxGeometry x="70" y="520" width="120" height="60" as="geometry" />
        </mxCell>
        <mxCell id="YPs2PWeKYUDRz_fuo6rX-74" style="edgeStyle=none;curved=1;sketch=1;orthogonalLoop=1;jettySize=auto;html=1;exitX=1;exitY=0.5;exitDx=0;exitDy=0;fontFamily=Comic Sans MS;fontSize=18;fontColor=#67AB9F;endArrow=classic;endFill=1;strokeWidth=3;fillColor=#bac8d3;strokeColor=#23445d;" edge="1" parent="1" source="YPs2PWeKYUDRz_fuo6rX-71" target="YPs2PWeKYUDRz_fuo6rX-72">
          <mxGeometry relative="1" as="geometry" />
        </mxCell>
        <mxCell id="YPs2PWeKYUDRz_fuo6rX-77" value="AST" style="edgeLabel;html=1;align=center;verticalAlign=middle;resizable=0;points=[];fontSize=18;fontFamily=Comic Sans MS;fontColor=#67AB9F;" vertex="1" connectable="0" parent="YPs2PWeKYUDRz_fuo6rX-74">
          <mxGeometry x="-0.3306" y="-3" relative="1" as="geometry">
            <mxPoint x="15" y="-23" as="offset" />
          </mxGeometry>
        </mxCell>
        <mxCell id="YPs2PWeKYUDRz_fuo6rX-71" value="Parser&lt;br&gt;语法解析器" style="rounded=1;whiteSpace=wrap;html=1;shadow=0;sketch=1;fontFamily=Comic Sans MS;fontSize=18;strokeColor=#23445d;strokeWidth=2;fillColor=#bac8d3;" vertex="1" parent="1">
          <mxGeometry x="310" y="520" width="120" height="60" as="geometry" />
        </mxCell>
        <mxCell id="YPs2PWeKYUDRz_fuo6rX-72" value="Interpreter&lt;br&gt;解释器" style="rounded=1;whiteSpace=wrap;html=1;shadow=0;sketch=1;fontFamily=Comic Sans MS;fontSize=18;strokeColor=#23445d;strokeWidth=2;fillColor=#bac8d3;" vertex="1" parent="1">
          <mxGeometry x="552.5" y="520" width="120" height="60" as="geometry" />
        </mxCell>
      </root>
    </mxGraphModel>
  </diagram>
</mxfile>
